<?xml version="1.0" encoding="UTF-8"?>
<svg id="Calque_1" data-name="Calque 1" xmlns="http://www.w3.org/2000/svg" viewBox="0 0 30 30">
  <defs>
    <style>
      .cls-1 {
        fill: #08492E;
        stroke-width: 0px;
      }
    </style>
  </defs>
  <path id="Tracé_1" data-name="Tracé 1" class="cls-1" d="m1.95,6.39c2.02-.85,4.14-1.41,6.32-1.67,2.48-.25,4.58.12,5.8,1.4v18.18c-1.86-.9-3.95-1.23-5.99-.92-2.1.24-4.16.75-6.13,1.51V6.39Zm13.98-.26c1.22-1.29,3.32-1.65,5.8-1.4,2.17.26,4.3.82,6.32,1.66v18.5c-1.97-.76-4.03-1.27-6.13-1.51-2.04-.31-4.13.01-5.99.92V6.12Zm-.93-1.69c-1.84-1.58-4.5-1.81-6.93-1.57-2.57.3-5.08,1-7.44,2.06-.33.15-.55.48-.55.85v20.51c0,.51.42.93.93.93.13,0,.26-.03.39-.08,2.18-.98,4.49-1.62,6.86-1.9,2.63-.27,4.83.16,6.01,1.64.32.4.91.47,1.31.15.05-.04.1-.09.15-.15,1.18-1.47,3.38-1.9,6.01-1.64,2.37.28,4.69.92,6.86,1.9.47.21,1.02,0,1.23-.46.05-.12.08-.25.08-.39V5.78c0-.37-.21-.7-.55-.85-2.36-1.06-4.87-1.76-7.45-2.06-2.43-.24-5.09,0-6.93,1.57h0Z"/>
</svg>