<?xml version="1.0" encoding="UTF-8"?>
<svg id="Calque_2" data-name="Calque 2" xmlns="http://www.w3.org/2000/svg" viewBox="0 0 500.16 473.84">
  <defs>
    <style>
      .cls-1 {
        fill: none;
        stroke: #fabb3e;
        stroke-width: 35px;
      }

      .cls-2 {
        isolation: isolate;
      }

      .cls-3 {
        fill: #fabb3e;
        stroke-width: 0px;
      }
    </style>
  </defs>
  <g id="Calque_1-2" data-name="Calque 1">
    <g>
      <g>
        <g class="cls-2">
          <path class="cls-3" d="m12.44,204.3C4.25,199.48.16,192.8.16,184.25c0-3.72,1.41-6.73,4.22-9.04,2.81-2.31,7.54-3.47,14.17-3.47.4,7.34,2.94,12.89,7.61,16.66,4.67,3.77,11.23,5.65,19.67,5.65,6.53,0,11.66-1.13,15.38-3.39,3.72-2.26,5.58-5.4,5.58-9.42,0-2.71-.7-4.92-2.11-6.63-1.41-1.71-3.84-3.26-7.31-4.67-3.47-1.41-8.52-2.86-15.15-4.37-10.05-2.31-17.94-4.92-23.67-7.84-5.73-2.91-9.87-6.38-12.44-10.4-2.56-4.02-3.84-9.04-3.84-15.07s1.73-10.78,5.2-15.15,8.31-7.76,14.55-10.17c6.23-2.41,13.47-3.62,21.71-3.62s14.87,1.03,21.1,3.09c6.23,2.06,11.1,4.95,14.62,8.67,3.52,3.72,5.28,7.99,5.28,12.81,0,3.72-1.38,6.66-4.15,8.82-2.77,2.16-7.31,3.34-13.64,3.54-.5-6.73-2.56-11.66-6.18-14.77-3.62-3.11-9.3-4.67-17.03-4.67-6.33,0-11.21,1.01-14.62,3.01-3.42,2.01-5.13,4.93-5.13,8.74,0,2.61.65,4.75,1.96,6.41,1.3,1.66,3.54,3.14,6.71,4.45,3.17,1.31,7.71,2.61,13.64,3.92,10.35,2.31,18.56,4.95,24.65,7.91,6.08,2.97,10.5,6.51,13.26,10.63,2.76,4.12,4.15,9.2,4.15,15.22s-1.73,11.51-5.2,16.13c-3.47,4.62-8.39,8.17-14.77,10.63-6.38,2.46-13.89,3.69-22.54,3.69-14.07,0-25.2-2.41-33.39-7.24Z"/>
          <path class="cls-3" d="m104.92,119.44c0-5.02,1.93-8.97,5.8-11.83,3.87-2.86,9.32-4.3,16.35-4.3v92.1c0,5.13-1.94,9.1-5.8,11.91-3.87,2.81-9.32,4.22-16.35,4.22v-92.1Z"/>
          <path class="cls-3" d="m150.07,206.71c-2.26-2.31-3.39-5.07-3.39-8.29v-79.14c0-5.43,1.81-9.44,5.43-12.06,3.62-2.61,9.2-3.92,16.73-3.92v87.73h38.89c5.02,0,8.87,1.63,11.53,4.9,2.66,3.27,3.99,8.02,3.99,14.24h-64.97c-3.22,0-5.95-1.15-8.21-3.47Z"/>
          <path class="cls-3" d="m245.71,204.15l-38.29-98.58c1.1-.6,2.59-1.13,4.45-1.58,1.86-.45,3.59-.68,5.2-.68,8.64,0,14.17,3.47,16.58,10.4l21.71,60.9-3.77,10.25,1.81.75,25.93-71.9c2.61-6.93,8.14-10.4,16.58-10.4,1.61,0,3.34.23,5.2.68,1.86.45,3.34.98,4.45,1.58l-38.14,98.58c-1.81,4.92-5.43,7.39-10.85,7.39s-9.04-2.46-10.85-7.39Z"/>
          <path class="cls-3" d="m319.12,114.76c0-2.81,1.08-5.2,3.24-7.16,2.16-1.96,4.8-2.94,7.91-2.94h67.38c0,6.63-1.11,11.46-3.32,14.47-2.21,3.01-5.78,4.52-10.7,4.52h-42.36v23.82h39.49c0,6.63-1.11,11.46-3.32,14.47-2.21,3.01-5.78,4.52-10.7,4.52h-25.48v24.72h45.52c4.82,0,8.34,1.51,10.55,4.52,2.21,3.01,3.32,7.84,3.32,14.47h-70.39c-3.12,0-5.75-.95-7.91-2.86-2.16-1.91-3.24-4.32-3.24-7.24v-85.32Z"/>
          <path class="cls-3" d="m414.23,114.76c0-2.91,1.08-5.33,3.24-7.24,2.16-1.91,4.8-2.86,7.91-2.86h39.64c11.25,0,19.92,2.89,26,8.67,6.08,5.78,9.12,14,9.12,24.65,0,5.93-1.18,10.91-3.54,14.92-2.36,4.02-6.01,7.19-10.93,9.5v.6c8.74,3.92,13.11,11.31,13.11,22.16v10.4c0,5.23-1.88,9.2-5.65,11.91-3.77,2.71-9.27,4.07-16.51,4.07v-25.63c0-5.02-.98-8.72-2.94-11.08-1.96-2.36-4.95-3.54-8.97-3.54h-28.64v24.27c0,5.23-1.86,9.2-5.58,11.91-3.72,2.71-9.15,4.07-16.28,4.07v-96.77Zm49.59,37.68c4.62,0,8.14-1.26,10.55-3.77,2.41-2.51,3.62-6.13,3.62-10.85s-1.13-8.54-3.39-10.85c-2.26-2.31-5.86-3.47-10.78-3.47h-27.74v28.94h27.74Z"/>
        </g>
        <g class="cls-2">
          <path class="cls-3" d="m0,270.21c0-5.36,2.19-9.66,6.57-12.89,4.38-3.23,10.23-4.84,17.57-4.84l32.84,83.74-4.1,11.17,1.81.82,35.3-95.56c7.33,0,13.19,1.62,17.57,4.84,4.38,3.23,6.57,7.53,6.57,12.89v100.16c-15.66,0-23.48-5.75-23.48-17.24v-46.96l5.91-16.42-1.97-.66-27.91,74.87c-.77,1.86-2.03,3.39-3.78,4.6-1.75,1.2-3.67,1.81-5.75,1.81-2.19,0-4.16-.6-5.91-1.81-1.75-1.2-3.01-2.79-3.78-4.76l-27.91-75.04-1.97.82,5.91,16.42v47.12c0,11.49-7.83,17.24-23.48,17.24v-100.32Z"/>
          <path class="cls-3" d="m135.46,270.21c0-5.47,2.11-9.77,6.32-12.89,4.21-3.12,10.15-4.68,17.81-4.68v100.32c0,5.58-2.11,9.91-6.32,12.97-4.21,3.07-10.15,4.6-17.81,4.6v-100.32Z"/>
          <path class="cls-3" d="m202.29,364.79c-7.77-3.83-13.82-9.17-18.14-16.01-4.33-6.84-6.49-14.64-6.49-23.4v-27.91c0-8.76,2.11-16.53,6.32-23.32,4.21-6.79,10.12-12.07,17.73-15.85,7.61-3.78,16.28-5.66,26.02-5.66s18.44,1.45,26.11,4.35c7.66,2.9,13.6,6.98,17.82,12.23,4.21,5.25,6.32,11.22,6.32,17.9,0,4.38-1.42,7.8-4.27,10.26-2.85,2.46-6.73,3.69-11.66,3.69-2.85,0-5.64-.38-8.37-1.15.33-2.3.49-5.09.49-8.37,0-5.25-2.46-9.55-7.39-12.89-4.93-3.34-11.28-5.01-19.05-5.01s-13.9,2.22-18.72,6.65c-4.82,4.43-7.22,10.15-7.22,17.16v27.91c0,7.12,2.49,12.92,7.47,17.4,4.98,4.49,11.47,6.73,19.46,6.73s14.09-1.64,18.96-4.93c4.87-3.28,7.31-7.55,7.31-12.81,0-3.61-.16-6.24-.49-7.88,2.96-.66,5.64-.98,8.05-.98,4.93,0,8.87,1.26,11.82,3.78,2.95,2.52,4.43,5.97,4.43,10.35,0,6.46-2.11,12.23-6.32,17.32-4.21,5.09-10.13,9.06-17.73,11.9-7.61,2.85-16.28,4.27-26.03,4.27s-18.66-1.91-26.44-5.75Z"/>
          <path class="cls-3" d="m293.58,265.12c0-3.17,1.17-5.8,3.53-7.88,2.35-2.08,5.23-3.12,8.62-3.12h43.18c12.26,0,21.7,3.15,28.32,9.44,6.62,6.3,9.93,15.25,9.93,26.85,0,6.46-1.29,11.88-3.86,16.25-2.57,4.38-6.54,7.83-11.9,10.35v.66c9.52,4.27,14.28,12.32,14.28,24.14v11.33c0,5.69-2.05,10.02-6.16,12.97-4.1,2.96-10.1,4.43-17.98,4.43v-27.91c0-5.47-1.07-9.5-3.2-12.07-2.13-2.57-5.39-3.86-9.77-3.86h-31.2v26.44c0,5.69-2.03,10.02-6.08,12.97-4.05,2.96-9.96,4.43-17.73,4.43v-105.41Zm54.02,41.05c5.03,0,8.87-1.37,11.49-4.1,2.63-2.74,3.94-6.68,3.94-11.82s-1.23-9.3-3.69-11.82c-2.46-2.52-6.38-3.78-11.74-3.78h-30.21v31.53h30.21Z"/>
          <path class="cls-3" d="m424.94,365.2c-7.55-3.56-13.55-8.37-17.98-14.45-4.43-6.08-6.65-12.62-6.65-19.62v-39.08c0-7,2.22-13.55,6.65-19.62,4.43-6.08,10.43-10.89,17.98-14.45,7.55-3.56,15.82-5.34,24.79-5.34s17.24,1.78,24.79,5.34c7.55,3.56,13.55,8.37,17.98,14.45,4.43,6.07,6.65,12.62,6.65,19.62v39.08c0,7.01-2.22,13.55-6.65,19.62-4.43,6.07-10.43,10.89-17.98,14.45-7.55,3.56-15.82,5.34-24.79,5.34s-17.24-1.78-24.79-5.34Zm43.02-20.94c4.71-3.5,7.06-8.05,7.06-13.63v-38.09c0-5.58-2.36-10.12-7.06-13.63-4.71-3.5-10.78-5.25-18.23-5.25s-13.52,1.75-18.23,5.25c-4.71,3.5-7.06,8.05-7.06,13.63v38.09c0,5.58,2.35,10.13,7.06,13.63,4.71,3.5,10.78,5.25,18.23,5.25s13.52-1.75,18.23-5.25Z"/>
        </g>
      </g>
      <g>
        <line id="Ligne_1" data-name="Ligne 1" class="cls-1" x1=".31" y1="456.34" x2="499.85" y2="456.34"/>
        <line id="Ligne_2" data-name="Ligne 2" class="cls-1" x1=".31" y1="17.5" x2="499.85" y2="17.5"/>
      </g>
    </g>
  </g>
</svg>