<?xml version="1.0" encoding="UTF-8"?>
<svg id="Calque_1" data-name="Calque 1" xmlns="http://www.w3.org/2000/svg" viewBox="0 0 27.05 26">
  <defs>
    <style>
      .cls-1 {
        fill: #2e2e2e;
        fill-rule: evenodd;
        stroke-width: 0px;
      }
    </style>
  </defs>
  <path id="Tracé_12" data-name="Tracé 12" class="cls-1" d="m20.5,17.76c3.88-4.8,2.98-11.72-2.02-15.45S6.29-.55,2.41,4.25c-3.88,4.8-2.98,11.72,2.02,15.45,4.13,3.09,9.92,3.09,14.05,0l.06.06,6.07,5.83c.56.54,1.46.54,2.02,0s.56-1.41,0-1.94l-6.07-5.83s-.04-.04-.07-.06Zm-2.97-12.58c3.35,3.22,3.35,8.44,0,11.66-3.35,3.22-8.78,3.22-12.13,0-3.35-3.22-3.35-8.44,0-11.66,3.35-3.22,8.78-3.22,12.13,0,0,0,0,0,0,0Z"/>
</svg>